<svg width="467" height="275" viewBox="0 0 467 275" fill="none" xmlns="http://www.w3.org/2000/svg">
<path d="M289.64 79.4937C285.041 79.4937 281.298 83.1595 281.298 87.6653C281.298 93.3286 289.648 103.003 289.648 103.003C289.648 103.003 297.982 93.0501 297.982 87.6653C297.982 83.1595 294.24 79.4937 289.64 79.4937ZM292.157 90.0579C291.463 90.7376 290.552 91.0775 289.64 91.0775C288.729 91.0775 287.817 90.7376 287.123 90.0579C285.736 88.6985 285.736 86.4865 287.123 85.127C287.796 84.4684 288.689 84.1056 289.64 84.1056C290.591 84.1056 291.485 84.4685 292.157 85.127C293.545 86.4865 293.545 88.6985 292.157 90.0579Z" fill="#FFA724"/>
<path d="M209.342 158C204.742 158 201 161.666 201 166.172C201 171.835 209.35 181.509 209.35 181.509C209.35 181.509 217.684 171.556 217.684 166.172C217.684 161.666 213.942 158 209.342 158ZM211.859 168.564C211.165 169.244 210.253 169.584 209.342 169.584C208.431 169.584 207.519 169.244 206.825 168.564C205.437 167.205 205.437 164.993 206.825 163.633C207.497 162.975 208.391 162.612 209.342 162.612C210.293 162.612 211.186 162.975 211.859 163.633C213.247 164.993 213.247 167.205 211.859 168.564Z" fill="#FFA724"/>
<path d="M269.342 190C264.742 190 261 193.666 261 198.172C261 203.835 269.35 213.509 269.35 213.509C269.35 213.509 277.684 203.556 277.684 198.172C277.684 193.666 273.942 190 269.342 190ZM271.859 200.564C271.165 201.244 270.253 201.584 269.342 201.584C268.431 201.584 267.519 201.244 266.825 200.564C265.437 199.205 265.437 196.993 266.825 195.633C267.497 194.975 268.391 194.612 269.342 194.612C270.293 194.612 271.186 194.975 271.859 195.633C273.247 196.993 273.247 199.205 271.859 200.564Z" fill="#FFA724"/>
<path d="M192.342 91C187.742 91 184 94.6658 184 99.1716C184 104.835 192.35 114.509 192.35 114.509C192.35 114.509 200.684 104.556 200.684 99.1716C200.684 94.6658 196.942 91 192.342 91ZM194.859 101.564C194.165 102.244 193.253 102.584 192.342 102.584C191.431 102.584 190.519 102.244 189.825 101.564C188.437 100.205 188.437 97.9929 189.825 96.6333C190.497 95.9747 191.391 95.612 192.342 95.612C193.293 95.612 194.186 95.9749 194.859 96.6333C196.247 97.9929 196.247 100.205 194.859 101.564Z" fill="#FFA724"/>
<path d="M175.342 251C170.742 251 167 254.666 167 259.172C167 264.835 175.35 274.509 175.35 274.509C175.35 274.509 183.684 264.556 183.684 259.172C183.684 254.666 179.942 251 175.342 251ZM177.859 261.564C177.165 262.244 176.253 262.584 175.342 262.584C174.431 262.584 173.519 262.244 172.825 261.564C171.437 260.205 171.437 257.993 172.825 256.633C173.497 255.975 174.391 255.612 175.342 255.612C176.293 255.612 177.186 255.975 177.859 256.633C179.247 257.993 179.247 260.205 177.859 261.564Z" fill="#FFA724"/>
<path d="M340.342 251C335.742 251 332 254.666 332 259.172C332 264.835 340.35 274.509 340.35 274.509C340.35 274.509 348.684 264.556 348.684 259.172C348.684 254.666 344.942 251 340.342 251ZM342.859 261.564C342.165 262.244 341.253 262.584 340.342 262.584C339.431 262.584 338.519 262.244 337.825 261.564C336.437 260.205 336.437 257.993 337.825 256.633C338.497 255.975 339.391 255.612 340.342 255.612C341.293 255.612 342.186 255.975 342.859 256.633C344.247 257.993 344.247 260.205 342.859 261.564Z" fill="#FFA724"/>
<path d="M357.342 134C352.742 134 349 137.666 349 142.172C349 147.835 357.35 157.509 357.35 157.509C357.35 157.509 365.684 147.556 365.684 142.172C365.684 137.666 361.942 134 357.342 134ZM359.859 144.564C359.165 145.244 358.253 145.584 357.342 145.584C356.431 145.584 355.519 145.244 354.825 144.564C353.437 143.205 353.437 140.993 354.825 139.633C355.497 138.975 356.391 138.612 357.342 138.612C358.293 138.612 359.186 138.975 359.859 139.633C361.247 140.993 361.247 143.205 359.859 144.564Z" fill="#FFA724"/>
<path d="M113.342 134C108.742 134 105 137.666 105 142.172C105 147.835 113.35 157.509 113.35 157.509C113.35 157.509 121.684 147.556 121.684 142.172C121.684 137.666 117.942 134 113.342 134ZM115.859 144.564C115.165 145.244 114.253 145.584 113.342 145.584C112.431 145.584 111.519 145.244 110.825 144.564C109.437 143.205 109.437 140.993 110.825 139.633C111.497 138.975 112.391 138.612 113.342 138.612C114.293 138.612 115.186 138.975 115.859 139.633C117.247 140.993 117.247 143.205 115.859 144.564Z" fill="#FFA724"/>
<path d="M86.3419 110C81.7422 110 78 113.666 78 118.172C78 123.835 86.3501 133.509 86.3501 133.509C86.3501 133.509 94.6838 123.556 94.6838 118.172C94.6838 113.666 90.9417 110 86.3419 110ZM88.8588 120.564C88.1648 121.244 87.2534 121.584 86.3419 121.584C85.4305 121.584 84.5188 121.244 83.8251 120.564C82.4372 119.205 82.4372 116.993 83.8251 115.633C84.4972 114.975 85.3911 114.612 86.3419 114.612C87.2927 114.612 88.1865 114.975 88.8588 115.633C90.2467 116.993 90.2467 119.205 88.8588 120.564Z" fill="#FFA724"/>
<path d="M167.342 41C162.742 41 159 44.6658 159 49.1716C159 54.8349 167.35 64.509 167.35 64.509C167.35 64.509 175.684 54.5564 175.684 49.1716C175.684 44.6658 171.942 41 167.342 41ZM169.859 51.5643C169.165 52.244 168.253 52.5839 167.342 52.5839C166.431 52.5839 165.519 52.244 164.825 51.5643C163.437 50.2049 163.437 47.9929 164.825 46.6333C165.497 45.9747 166.391 45.612 167.342 45.612C168.293 45.612 169.186 45.9749 169.859 46.6333C171.247 47.9929 171.247 50.2049 169.859 51.5643Z" fill="#FFA724"/>
<path d="M458.342 146C453.742 146 450 149.666 450 154.172C450 159.835 458.35 169.509 458.35 169.509C458.35 169.509 466.684 159.556 466.684 154.172C466.684 149.666 462.942 146 458.342 146ZM460.859 156.564C460.165 157.244 459.253 157.584 458.342 157.584C457.431 157.584 456.519 157.244 455.825 156.564C454.437 155.205 454.437 152.993 455.825 151.633C456.497 150.975 457.391 150.612 458.342 150.612C459.293 150.612 460.186 150.975 460.859 151.633C462.247 152.993 462.247 155.205 460.859 156.564Z" fill="#FFA724"/>
<path d="M8.3419 170C3.74221 170 0 173.666 0 178.172C0 183.835 8.35011 193.509 8.35011 193.509C8.35011 193.509 16.6838 183.556 16.6838 178.172C16.6838 173.666 12.9417 170 8.3419 170ZM10.8588 180.564C10.1648 181.244 9.25343 181.584 8.3419 181.584C7.43052 181.584 6.51884 181.244 5.82512 180.564C4.43725 179.205 4.43725 176.993 5.82512 175.633C6.49716 174.975 7.39112 174.612 8.3419 174.612C9.29269 174.612 10.1865 174.975 10.8588 175.633C12.2467 176.993 12.2467 179.205 10.8588 180.564Z" fill="#FFA724"/>
<path d="M8.3419 53C3.74221 53 0 56.6658 0 61.1716C0 66.8349 8.35011 76.509 8.35011 76.509C8.35011 76.509 16.6838 66.5564 16.6838 61.1716C16.6838 56.6658 12.9417 53 8.3419 53ZM10.8588 63.5643C10.1648 64.244 9.25343 64.5839 8.3419 64.5839C7.43052 64.5839 6.51884 64.244 5.82512 63.5643C4.43725 62.2049 4.43725 59.9929 5.82512 58.6333C6.49716 57.9747 7.39112 57.612 8.3419 57.612C9.29269 57.612 10.1865 57.9749 10.8588 58.6333C12.2467 59.9929 12.2467 62.2049 10.8588 63.5643Z" fill="#FFA724"/>
<path d="M25.3419 0C20.7422 0 17 3.66582 17 8.17161C17 13.8349 25.3501 23.509 25.3501 23.509C25.3501 23.509 33.6838 13.5564 33.6838 8.17161C33.6838 3.66582 29.9417 0 25.3419 0ZM27.8588 10.5643C27.1648 11.244 26.2534 11.5839 25.3419 11.5839C24.4305 11.5839 23.5188 11.244 22.8251 10.5643C21.4372 9.20487 21.4372 6.99286 22.8251 5.63332C23.4972 4.97471 24.3911 4.61198 25.3419 4.61198C26.2927 4.61198 27.1865 4.97486 27.8588 5.63332C29.2467 6.99286 29.2467 9.20487 27.8588 10.5643Z" fill="#FFA724"/>
</svg>
