<svg width="17" height="25" viewBox="0 0 17 25" fill="none" xmlns="http://www.w3.org/2000/svg">
<path d="M8.64024 0.493652C4.04055 0.493652 0.29834 4.15947 0.29834 8.66527C0.29834 14.3286 8.64845 24.0026 8.64845 24.0026C8.64845 24.0026 16.9821 14.0501 16.9821 8.66527C16.9821 4.15947 13.2401 0.493652 8.64024 0.493652ZM11.1572 11.0579C10.4632 11.7376 9.55177 12.0775 8.64024 12.0775C7.72886 12.0775 6.81718 11.7376 6.12346 11.0579C4.73559 9.69852 4.73559 7.48652 6.12346 6.12697C6.7955 5.46837 7.68946 5.10563 8.64024 5.10563C9.59103 5.10563 10.4848 5.46851 11.1572 6.12697C12.545 7.48652 12.545 9.69852 11.1572 11.0579Z" fill="#FFA724"/>
</svg>
